<svg xmlns="http://www.w3.org/2000/svg" width="1440" height="92" viewBox="0 0 1440 92" preserveAspectRatio="none"><path fill="#fff" d="M0 24c61 8 112-6 179 4 70 10 151 19 235 6 45-7 96-24 154-13 58 11 99 34 166 25 65-8 91-38 166-29 78 10 138 39 219 25 62-11 109-33 177-24 55 8 88 28 144 21v57H0Z"/><path fill="#fff" d="M0 45c54-8 115 14 168 6 58-8 94-20 162-9 52 8 82 22 151 14 52-6 104-25 164-11 60 13 110 34 181 16 51-13 98-27 151-17 71 13 102 37 178 20 76-17 123-21 193-3 34 9 59 11 92 4v31H0Z"/></svg>