<svg xmlns="http://www.w3.org/2000/svg" width="1440" height="92" viewBox="0 0 1440 92" preserveAspectRatio="none"><path fill="#0b8bea" d="M0 31c74 15 119-9 202 9 78 17 158 23 231 1 62-19 113-31 178-11 61 19 96 34 164 15 68-19 116-41 189-19 75 22 138 37 221 13 60-18 99-29 162-12 38 10 57 16 93 12v53H0Z"/><path fill="#0b8bea" d="M0 54c42-7 76 8 135 1 73-8 102-26 169-14 58 11 90 31 161 17 54-11 103-25 164-11 71 16 117 36 192 16 65-17 97-37 168-23 65 13 98 33 176 19 83-15 132-24 201 1 28 10 50 12 74 8v24H0Z"/></svg>