<svg xmlns="http://www.w3.org/2000/svg" width="1440" height="92" viewBox="0 0 1440 92" preserveAspectRatio="none"><path fill="#ffd33d" d="M0 35c64 13 114-8 187 6 72 14 141 22 220 2 64-17 107-32 171-14 76 21 118 40 196 17 70-20 105-44 188-23 74 19 132 39 209 18 67-19 104-30 173-12 40 10 64 16 96 12v51H0Z"/><path fill="#ffd33d" d="M0 57c49-9 90 8 148 1 69-9 104-30 176-14 62 13 92 32 162 18 54-11 101-27 167-11 64 16 109 36 181 16 68-18 101-38 168-25 66 13 94 34 177 21 85-14 130-28 207-2 21 7 37 9 54 6v25H0Z"/></svg>