<svg xmlns="http://www.w3.org/2000/svg" width="620" height="520" viewBox="0 0 620 520"><rect x="34" y="34" width="235" height="390" rx="6" fill="#f2edc8" transform="rotate(-5 150 250)"/><text x="67" y="95" font-family="Arial" font-size="42" font-weight="800" fill="#323232" transform="rotate(-5 67 95)">BALCÃO #005</text><text x="73" y="150" font-family="Arial" font-size="28" font-weight="700" fill="#333" transform="rotate(-5 73 150)">H.PED: 14/07 15:43</text><text x="77" y="205" font-family="Arial" font-size="30" font-weight="700" fill="#333" transform="rotate(-5 77 205)">1 - X-TUDO</text><text x="100" y="250" font-family="Arial" font-size="25" font-weight="700" fill="#333" transform="rotate(-5 100 250)">+ Mais Queijo</text><text x="103" y="292" font-family="Arial" font-size="25" font-weight="700" fill="#333" transform="rotate(-5 103 292)">+ Mais Bacon</text><ellipse cx="330" cy="126" rx="70" ry="74" fill="#ffd2b4"/><path d="M255 88c17-55 90-72 132-31 28 28 20 72-10 72-38 0-63-26-122-41z" fill="#151515"/><circle cx="300" cy="128" r="8" fill="#222"/><circle cx="360" cy="128" r="8" fill="#222"/><path d="M294 119c29-13 57-12 83 0" fill="none" stroke="#222" stroke-width="7" stroke-linecap="round" opacity=".55"/><path d="M314 170c24 13 48 12 70-3" fill="none" stroke="#7d3528" stroke-width="5" stroke-linecap="round"/><path d="M245 250c17-58 62-91 113-91s92 35 108 91l39 178H209z" fill="#f6f6f6"/><path d="M286 230h131l30 205H251z" fill="#1f2937"/><rect x="382" y="250" width="92" height="170" rx="17" fill="#08c96b"/><rect x="394" y="282" width="68" height="105" fill="#f8fbff"/><rect x="394" y="282" width="68" height="23" fill="#1298d4"/><text x="401" y="300" font-family="Arial" font-size="12" font-weight="800" fill="#fff">PDV</text><rect x="431" y="287" width="24" height="11" fill="#fff"/><text x="432" y="298" font-family="Arial" font-size="10" fill="#1298d4">legal</text><path d="M235 299c-53 22-78 54-64 79 12 21 50 16 104-16" fill="none" stroke="#ffd2b4" stroke-width="32" stroke-linecap="round"/><path d="M430 304c56 11 86 31 90 56 4 26-30 37-68 28" fill="none" stroke="#ffd2b4" stroke-width="32" stroke-linecap="round"/><path d="M516 360l-46-20" stroke="#ffd2b4" stroke-width="32" stroke-linecap="round"/></svg>