<svg xmlns="http://www.w3.org/2000/svg" width="640" height="430" viewBox="0 0 640 430"><defs><filter id="sh"><feDropShadow dx="8" dy="22" stdDeviation="12" flood-opacity=".18"/></filter></defs><g filter="url(#sh)"><path d="M94 55h452c18 0 33 15 33 33v252H61V88c0-18 15-33 33-33z" fill="#171717"/><rect x="82" y="78" width="476" height="240" fill="#f7f7f7"/><rect x="82" y="78" width="476" height="28" fill="#f0f2f4"/><circle cx="101" cy="93" r="4" fill="#ff5f57"/><circle cx="116" cy="93" r="4" fill="#ffbd2e"/><circle cx="131" cy="93" r="4" fill="#28c840"/><rect x="98" y="122" width="78" height="180" fill="#202124"/><rect x="188" y="122" width="120" height="50" rx="6" fill="#e7f7ff"/><rect x="321" y="122" width="120" height="50" rx="6" fill="#fff4c3"/><rect x="454" y="122" width="80" height="50" rx="6" fill="#eee"/><rect x="188" y="194" width="330" height="20" rx="4" fill="#eceff2"/><rect x="188" y="225" width="220" height="20" rx="4" fill="#eceff2"/><rect x="188" y="256" width="300" height="20" rx="4" fill="#eceff2"/><text x="110" y="151" font-family="Arial" font-size="18" font-weight="800" fill="#fff">PDV</text><rect x="111" y="165" width="45" height="18" fill="#1298d4"/><text x="194" y="154" font-family="Arial" font-size="22" font-weight="700" fill="#1298d4">94.187,49</text><text x="326" y="154" font-family="Arial" font-size="22" font-weight="700" fill="#e0ad00">81,76</text><path d="M38 340h564l37 43H0z" fill="#e9e9e9"/><path d="M2 383h636c-14 18-46 29-81 29H83c-35 0-66-11-81-29z" fill="#cfcfcf"/><rect x="254" y="348" width="132" height="16" rx="8" fill="#c8c8c8"/></g></svg>