<svg xmlns="http://www.w3.org/2000/svg" width="570" height="470" viewBox="0 0 570 470"><defs><filter id="p"><feDropShadow dx="12" dy="24" stdDeviation="10" flood-opacity=".2"/></filter></defs><g filter="url(#p)"><g transform="translate(330 50) rotate(8)"><rect width="142" height="340" rx="28" fill="#111"/><rect x="12" y="32" width="118" height="275" rx="5" fill="#fafafa"/><rect x="22" y="54" width="98" height="65" rx="8" fill="#d8b481"/><rect x="23" y="137" width="96" height="52" rx="6" fill="#f6f6f6"/><rect x="23" y="202" width="96" height="52" rx="6" fill="#f6f6f6"/><circle cx="71" cy="321" r="8" fill="#222"/></g><g transform="translate(120 55) rotate(-8)"><rect width="142" height="340" rx="28" fill="#111"/><rect x="12" y="32" width="118" height="275" rx="5" fill="#fafafa"/><rect x="22" y="54" width="98" height="65" rx="8" fill="#d8b481"/><rect x="23" y="137" width="96" height="52" rx="6" fill="#f6f6f6"/><rect x="23" y="202" width="96" height="52" rx="6" fill="#f6f6f6"/><circle cx="71" cy="321" r="8" fill="#222"/></g><g transform="translate(215 15)"><rect width="168" height="400" rx="34" fill="#111"/><rect x="14" y="38" width="140" height="320" rx="7" fill="#fff"/><rect x="25" y="58" width="118" height="78" rx="8" fill="#9a6132"/><text x="32" y="156" font-family="Arial" font-size="15" font-weight="700" fill="#222">Tibau's Gourmet</text><rect x="25" y="177" width="118" height="54" rx="6" fill="#f6f6f6"/><rect x="32" y="186" width="40" height="34" rx="4" fill="#c7925d"/><rect x="80" y="190" width="55" height="10" rx="5" fill="#ddd"/><rect x="80" y="207" width="39" height="10" rx="5" fill="#0bc57f"/><rect x="25" y="244" width="118" height="54" rx="6" fill="#f6f6f6"/><rect x="32" y="253" width="40" height="34" rx="4" fill="#e2bd72"/><rect x="80" y="257" width="55" height="10" rx="5" fill="#ddd"/><rect x="80" y="274" width="39" height="10" rx="5" fill="#0bc57f"/><circle cx="84" cy="374" r="9" fill="#222"/></g></g></svg>