<svg xmlns="http://www.w3.org/2000/svg" width="520" height="650" viewBox="0 0 520 650">
<defs><linearGradient id="g" x1="0" y1="0" x2="1" y2="1"><stop stop-color="#333"/><stop offset="1" stop-color="#060606"/></linearGradient><filter id="s" x="-20%" y="-20%" width="140%" height="140%"><feDropShadow dx="20" dy="35" stdDeviation="18" flood-opacity=".25"/></filter></defs>
<g filter="url(#s)" transform="translate(120 25) rotate(7)"><rect x="38" y="0" width="290" height="610" rx="44" fill="url(#g)"/><rect x="54" y="35" width="258" height="410" rx="10" fill="#0b0b0b"/><rect x="72" y="58" width="222" height="356" fill="#f5f7fb"/><rect x="72" y="58" width="222" height="48" fill="#1399d2"/><text x="88" y="91" font-family="Arial" font-size="30" font-weight="800" fill="#fff">PDV</text><rect x="155" y="66" width="78" height="33" fill="#fff"/><text x="163" y="91" font-family="Arial" font-size="25" font-weight="700" fill="#1399d2">legal</text><g font-family="Arial" font-size="12" fill="#222"><rect x="84" y="122" width="60" height="44" rx="2" fill="#fff" stroke="#c8d0d6"/><text x="91" y="148">Café</text><rect x="151" y="122" width="60" height="44" rx="2" fill="#fff" stroke="#c8d0d6"/><text x="158" y="148">Lanche</text><rect x="218" y="122" width="60" height="44" rx="2" fill="#fff" stroke="#c8d0d6"/><text x="225" y="148">Suco</text><rect x="84" y="174" width="60" height="44" rx="2" fill="#fff" stroke="#c8d0d6"/><text x="91" y="200">Pizza</text><rect x="151" y="174" width="60" height="44" rx="2" fill="#fff" stroke="#c8d0d6"/><text x="158" y="200">Combo</text><rect x="218" y="174" width="60" height="44" rx="2" fill="#fff" stroke="#c8d0d6"/><text x="225" y="200">Bebida</text><rect x="84" y="226" width="194" height="90" rx="3" fill="#fff" stroke="#c8d0d6"/><text x="98" y="260" font-size="18" font-weight="700">Total</text><text x="208" y="286" font-size="28" font-weight="700">0,00</text></g><rect x="86" y="340" width="38" height="33" rx="3" fill="#111"/><rect x="136" y="340" width="38" height="33" rx="3" fill="#111"/><rect x="186" y="340" width="38" height="33" rx="3" fill="#111"/><rect x="236" y="340" width="38" height="33" rx="3" fill="#111"/><rect x="100" y="474" width="164" height="26" rx="13" fill="#030303"/><rect x="67" y="513" width="232" height="45" rx="8" fill="#151515"/><circle cx="183" cy="588" r="9" fill="#222"/></g></svg>