<svg xmlns="http://www.w3.org/2000/svg" width="560" height="470" viewBox="0 0 560 470"><defs><filter id="t"><feDropShadow dx="8" dy="20" stdDeviation="10" flood-opacity=".14"/></filter></defs><g filter="url(#t)"><rect x="205" y="18" width="145" height="260" rx="10" fill="#1d252d"/><rect x="220" y="38" width="115" height="205" fill="#eff7f8"/><rect x="220" y="38" width="115" height="34" fill="#1298d4"/><text x="230" y="62" font-family="Arial" font-size="16" font-weight="800" fill="#fff">PDV</text><rect x="268" y="44" width="48" height="20" fill="#fff"/><text x="273" y="61" font-family="Arial" font-size="14" font-weight="700" fill="#1298d4">legal</text><g><rect x="232" y="92" width="34" height="34" rx="5" fill="#f7c05a"/><rect x="277" y="92" width="34" height="34" rx="5" fill="#f7c05a"/><rect x="232" y="139" width="34" height="34" rx="5" fill="#f7c05a"/><rect x="277" y="139" width="34" height="34" rx="5" fill="#f7c05a"/><rect x="232" y="186" width="34" height="34" rx="5" fill="#f7c05a"/><rect x="277" y="186" width="34" height="34" rx="5" fill="#f7c05a"/></g><rect x="238" y="278" width="80" height="100" fill="#1d252d"/><rect x="205" y="372" width="145" height="18" rx="9" fill="#1d252d"/></g><circle cx="370" cy="75" r="52" fill="#ffd33d" opacity=".9"/><rect x="160" y="135" width="115" height="115" rx="22" fill="#0b8bea" opacity=".95" transform="rotate(-23 217 192)"/><g transform="translate(72 382)"><text x="0" y="-9" font-family="Arial" font-size="15" font-weight="800" fill="#555">Food Trucks</text><rect x="0" y="0" width="76" height="70" rx="10" fill="#9ad7f5"/><text x="91" y="-9" font-family="Arial" font-size="15" font-weight="800" fill="#555">Sorveterias</text><rect x="91" y="0" width="76" height="70" rx="10" fill="#d6b7ec"/><text x="181" y="-9" font-family="Arial" font-size="15" font-weight="800" fill="#555">Cafeterias</text><rect x="181" y="0" width="76" height="70" rx="10" fill="#bd8d67"/><text x="271" y="-9" font-family="Arial" font-size="15" font-weight="800" fill="#555">Quiosques</text><rect x="271" y="0" width="76" height="70" rx="10" fill="#e0a152"/><text x="361" y="-9" font-family="Arial" font-size="15" font-weight="800" fill="#555">Mini Mercados</text><rect x="361" y="0" width="76" height="70" rx="10" fill="#91be57"/></g></svg>