<svg xmlns="http://www.w3.org/2000/svg" width="360" height="520" viewBox="0 0 360 520"><rect width="360" height="520" fill="#c98a35"/><circle cx="292" cy="60" r="52" fill="#91a75b" opacity=".45"/><rect x="85" y="34" width="190" height="115" rx="16" fill="#16c46f"/><path d="M141 91c36-26 72-26 108 0" fill="none" stroke="#fff" stroke-width="4" opacity=".6"/><rect x="88" y="147" width="184" height="290" rx="18" fill="#111"/><rect x="105" y="171" width="150" height="215" fill="#edf4f7"/><rect x="105" y="171" width="150" height="38" fill="#1298d4"/><text x="116" y="197" font-family="Arial" font-size="22" font-weight="800" fill="#fff">PDV</text><rect x="168" y="177" width="56" height="25" fill="#fff"/><text x="173" y="197" font-family="Arial" font-size="18" font-weight="700" fill="#1298d4">legal</text><g stroke="#c8d0d6" fill="#fff"><rect x="119" y="230" width="52" height="38"/><rect x="181" y="230" width="52" height="38"/><rect x="119" y="278" width="52" height="38"/><rect x="181" y="278" width="52" height="38"/><rect x="119" y="326" width="114" height="42"/></g><ellipse cx="183" cy="419" rx="23" ry="8" fill="#252525"/><path d="M72 505c39-62 62-136 87-145 25-9 54 7 55 42 1 34-40 68-59 118z" fill="#ffc5a9"/><path d="M157 520c2-58 7-103 25-115 22-16 47-4 44 29-2 26-18 54-25 86z" fill="#ffd1bc"/><path d="M211 520c-4-55-2-94 15-105 19-12 42 1 39 30-3 25-17 48-20 75z" fill="#ffbea1"/><path d="M260 520c-14-48-15-78-1-87 18-11 38 5 37 28-2 21-12 38-13 59z" fill="#f3aa8b"/></svg>